<!-- <svg style="width:0; height:0; visibility: hidden;" xmlns="http://www.w3.org/2000/svg"> -->

<svg  display="none" xmlns="http://www.w3.org/2000/svg">

	<!-- svg arrow -->
	<symbol id="svg-arrow" viewBox="0 0 12 14">
		<g>
			<path d="M0.0319231 7.53189L11.123 0.871973L11.3451 13.8071L0.0319231 7.53189Z" />
		</g>
	</symbol>

	<!-- svg email -->
	<symbol id="svg-email"  viewBox="0 0 24 24">
		<g>
			<path
				d="M12.042 23.6481C4.229 23.6481 0 18.7721 0 12.4771C0 5.75005 4.762 0.352051 13.276 0.352051C19.49 0.352051 24 4.39005 24 9.95305C24 18.6651 13.67 20.9651 14.188 15.9951C13.478 17.1031 12.334 18.3491 10.135 18.3491C7.619 18.3491 6.055 16.5071 6.055 13.5421C6.055 9.09805 8.976 5.34305 12.434 5.34305C14.093 5.34305 15.234 6.21905 15.711 7.56405L16.175 5.93205H18.513C18.269 6.76405 16.192 14.4591 16.192 14.4591C15.544 17.1251 17.542 17.1721 19.314 15.7561C22.643 13.1761 22.815 6.42905 18.316 3.61505C13.495 0.724051 2.521 2.51305 2.521 12.3081C2.521 17.9191 6.471 21.6891 12.35 21.6891C15.786 21.6891 17.892 20.7591 19.645 19.7411L20.822 21.4391C19.111 22.4051 16.361 23.6481 12.042 23.6481ZM9.698 9.34305C8.983 10.6831 8.521 12.4191 8.521 13.7671C8.521 17.3771 12.043 17.4001 13.773 14.0061C14.485 12.6121 14.944 10.8351 14.944 9.47705C14.944 6.56005 11.449 6.04305 9.698 9.34305V9.34305Z"
				/>
		</g>
	</symbol>

	<!-- svg be -->
	<symbol id="svg-be" viewBox="0 0 24 24">
		<g>
			<path
				d="M22 2H15V0H22V2ZM23.726 12C23.284 13.297 21.697 15 18.625 15C15.551 15 13.061 13.271 13.061 9.325C13.061 5.415 15.386 3.405 18.527 3.405C21.609 3.405 23.491 5.187 23.902 7.831C23.98 8.337 24.011 9.019 23.997 9.971H15.97C16.1 13.182 19.453 13.283 20.558 12H23.726ZM16.04 8H21.005C20.9 6.453 19.869 5.781 18.528 5.781C17.062 5.781 16.251 6.549 16.04 8ZM6.466 14.988H0V0.0209999H6.953C12.429 0.102 12.533 5.465 9.673 6.927C13.134 8.187 13.25 14.988 6.466 14.988ZM3 6H6.584C9.092 6 9.49 3 6.272 3H3V6ZM6.391 9H3V12.016H6.341C9.396 12.016 9.209 9 6.391 9Z"
				 />
		</g>
	</symbol>

	<!-- svg inst -->
	<symbol id="svg-inst" viewBox="0 0 24 24">
		<g>
			<path
				d="M12 2.163C15.204 2.163 15.584 2.175 16.85 2.233C20.102 2.381 21.621 3.924 21.769 7.152C21.827 8.417 21.838 8.797 21.838 12.001C21.838 15.206 21.826 15.585 21.769 16.85C21.62 20.075 20.105 21.621 16.85 21.769C15.584 21.827 15.206 21.839 12 21.839C8.796 21.839 8.416 21.827 7.151 21.769C3.891 21.62 2.38 20.07 2.232 16.849C2.174 15.584 2.162 15.205 2.162 12C2.162 8.796 2.175 8.417 2.232 7.151C2.381 3.924 3.896 2.38 7.151 2.232C8.417 2.175 8.796 2.163 12 2.163V2.163ZM12 0C8.741 0 8.333 0.014 7.053 0.072C2.695 0.272 0.273 2.69 0.073 7.052C0.014 8.333 0 8.741 0 12C0 15.259 0.014 15.668 0.072 16.948C0.272 21.306 2.69 23.728 7.052 23.928C8.333 23.986 8.741 24 12 24C15.259 24 15.668 23.986 16.948 23.928C21.302 23.728 23.73 21.31 23.927 16.948C23.986 15.668 24 15.259 24 12C24 8.741 23.986 8.333 23.928 7.053C23.732 2.699 21.311 0.273 16.949 0.073C15.668 0.014 15.259 0 12 0V0ZM12 5.838C8.597 5.838 5.838 8.597 5.838 12C5.838 15.403 8.597 18.163 12 18.163C15.403 18.163 18.162 15.404 18.162 12C18.162 8.597 15.403 5.838 12 5.838ZM12 16C9.791 16 8 14.21 8 12C8 9.791 9.791 8 12 8C14.209 8 16 9.791 16 12C16 14.21 14.209 16 12 16ZM18.406 4.155C17.61 4.155 16.965 4.8 16.965 5.595C16.965 6.39 17.61 7.035 18.406 7.035C19.201 7.035 19.845 6.39 19.845 5.595C19.845 4.8 19.201 4.155 18.406 4.155Z"
				 />
		</g>
	</symbol>

	<!-- svg phone -->
	<symbol id="svg-phone" viewBox="0 0 24 24">
		<g>
			<path
				d="M3.17609 1.322L6.02009 0L10.0611 7.89L7.33709 9.231C6.79909 10.49 9.49609 15.52 10.6341 15.603C10.7241 15.545 13.3051 14.275 13.3051 14.275L17.4151 22.207C17.4151 22.207 14.6511 23.561 14.5611 23.603C6.69909 27.194 -4.54191 5.345 3.17609 1.322V1.322ZM5.10509 2.596L4.08209 3.1C-1.21191 5.862 8.25909 24.285 13.7301 21.786L14.7011 21.312L12.4301 16.929L11.4041 17.429C8.24109 18.976 3.14209 9.21 6.34909 7.491L7.35609 6.994L5.10509 2.596V2.596Z"
				 />
		</g>
	</symbol>

	<!-- svg pin -->
	<symbol id="svg-pin" viewBox="0 0 24 24">
		<g>
			<path fill-rule="evenodd" clip-rule="evenodd" d="M12 0C5.373 0 0 5.372 0 12C0 17.084 3.163 21.426 7.627 23.174C7.522 22.225 7.427 20.769 7.669 19.733C7.887 18.796 9.076 13.768 9.076 13.768C9.076 13.768 8.717 13.049 8.717 11.986C8.717 10.318 9.684 9.072 10.888 9.072C11.911 9.072 12.406 9.841 12.406 10.762C12.406 11.791 11.751 13.33 11.412 14.757C11.129 15.951 12.011 16.926 13.189 16.926C15.322 16.926 16.961 14.677 16.961 11.431C16.961 8.558 14.897 6.549 11.949 6.549C8.535 6.549 6.531 9.11 6.531 11.756C6.531 12.787 6.928 13.894 7.424 14.494C7.522 14.613 7.536 14.718 7.507 14.839L7.174 16.199C7.121 16.419 7 16.466 6.772 16.36C5.273 15.662 4.336 13.471 4.336 11.711C4.336 7.926 7.086 4.449 12.265 4.449C16.428 4.449 19.663 7.416 19.663 11.38C19.663 15.516 17.056 18.844 13.436 18.844C12.22 18.844 11.077 18.213 10.686 17.466L9.938 20.319C9.667 21.362 8.936 22.669 8.446 23.465C9.57 23.812 10.763 24 12 24C18.627 24 24 18.627 24 12C24 5.372 18.627 0 12 0V0Z" />
		</g>
	</symbol>

	<!-- svg map -->
	<symbol id="svg-map" viewBox="0 0 23 33">
		<g>
			<path
				d="M11.5 2.75C15.8945 2.75 19.75 6.34975 19.75 10.4528C19.75 14.7056 16.3221 20.2593 11.5 27.8616C6.67788 20.2593 3.25 14.7056 3.25 10.4528C3.25 6.34975 7.1055 2.75 11.5 2.75V2.75ZM11.5 0C5.72775 0 0.5 4.67913 0.5 10.4528C0.5 16.225 5.26987 23.1165 11.5 33C17.7301 23.1165 22.5 16.225 22.5 10.4528C22.5 4.67913 17.2736 0 11.5 0V0ZM11.5 15.125C9.22163 15.125 7.375 13.2784 7.375 11C7.375 8.72163 9.22163 6.875 11.5 6.875C13.7784 6.875 15.625 8.72163 15.625 11C15.625 13.2784 13.7784 15.125 11.5 15.125Z"
				 />
		</g>
	</symbol>
<!-- svg beh -->
	<symbol id="svg-beh"  viewBox="0 0 24 15">
		<g>
		<path d="M22 2H15V0H22V2ZM23.726 12C23.284 13.297 21.697 15 18.625 15C15.551 15 13.061 13.271 13.061 9.325C13.061 5.415 15.386 3.405 18.527 3.405C21.609 3.405 23.491 5.187 23.902 7.831C23.98 8.337 24.011 9.019 23.997 9.971H15.97C16.1 13.182 19.453 13.283 20.558 12H23.726ZM16.04 8H21.005C20.9 6.453 19.869 5.781 18.528 5.781C17.062 5.781 16.251 6.549 16.04 8ZM6.466 14.988H0V0.0209999H6.953C12.429 0.102 12.533 5.465 9.673 6.927C13.134 8.187 13.25 14.988 6.466 14.988ZM3 6H6.584C9.092 6 9.49 3 6.272 3H3V6ZM6.391 9H3V12.016H6.341C9.396 12.016 9.209 9 6.391 9Z" />
		</g>
	</symbol>
<!-- (symbol[id=""]>g)*6 -->


<symbol id="svg-youtube" viewBox="0 0 25 30">
<g>

<path fill-rule="evenodd" clip-rule="evenodd"
d="M20.1904 11.3939H18.6105V10.4723C18.0115 11.164 17.5038 11.5134 16.9503 11.5134C16.4647 11.5134 16.1275 11.2826 15.9586 10.8655C15.856 10.612 15.7832 10.2161 15.7832 9.63456V2.93225H17.3632V9.21567V9.80212C17.4 10.0373 17.4991 10.1232 17.7 10.1232C18.0024 10.1232 18.276 9.85842 18.6105 9.38322V2.93225H20.1904V11.3939Z"
fill="currentColor" />
<path fill-rule="evenodd" clip-rule="evenodd"
d="M13.0391 8.88044C13.1222 9.71823 12.8643 10.1339 12.3737 10.1339C11.8832 10.1339 11.6255 9.71823 11.7086 8.88044V5.52929C11.6255 4.6915 11.8832 4.29883 12.3739 4.29883C12.8645 4.29883 13.1231 4.6915 13.0399 5.52929L13.0391 8.88044ZM14.619 5.69685C14.619 4.79254 14.4388 4.11359 14.1201 3.68615C13.6992 3.10741 13.0391 2.87048 12.3739 2.87048C11.6209 2.87048 11.0479 3.10741 10.6276 3.68615C10.3039 4.11359 10.1302 4.79991 10.1302 5.70422L10.1287 8.71289C10.1287 9.612 10.2831 10.2333 10.6069 10.6566C11.0272 11.2336 11.7086 11.5392 12.3739 11.5392C13.0391 11.5392 13.7325 11.2336 14.1534 10.6566C14.472 10.2333 14.619 9.612 14.619 8.71289V5.69685Z"
fill="currentColor" />
<mask id="mask0_2_292" style="mask-type:luminance" maskUnits="userSpaceOnUse" x="4"
y="0" width="7" height="12">
<path fill-rule="evenodd" clip-rule="evenodd"
  d="M10.4613 0.0837402H4.64044L4.64044 11.3939H10.4613V0.0837402Z"
  fill="white" />
</mask>
<g mask="url(#mask0_2_292)">
<path fill-rule="evenodd" clip-rule="evenodd"
  d="M8.38243 6.78605V11.3939H6.71932V6.78605C6.71932 6.78605 4.99593 1.13676 4.64044 0.0837402H6.3867L7.55378 4.49679L8.71505 0.0837402H10.4613L8.38243 6.78605Z"
  fill="currentColor" />
</g>
<path fill-rule="evenodd" clip-rule="evenodd"
d="M14.9686 19.5422C14.7208 19.5422 14.4368 19.674 14.1851 19.9244L14.1834 25.0052C14.4351 25.2588 14.7208 25.3873 14.9686 25.3873C15.4027 25.3873 15.5987 25.0663 15.5987 24.2285V20.626C15.5987 19.7882 15.4027 19.5422 14.9686 19.5422Z"
fill="currentColor" />
<path fill-rule="evenodd" clip-rule="evenodd"
d="M21.1701 20.5493C21.1701 19.7749 20.9715 19.5422 20.4724 19.5422C19.9695 19.5422 19.7565 19.7558 19.7565 20.5388V21.4654L21.1701 21.4639V20.5493Z"
fill="currentColor" />
<mask id="mask1_2_292" style="mask-type:luminance" maskUnits="userSpaceOnUse" x="0"
y="12" width="25" height="18">
<path fill-rule="evenodd" clip-rule="evenodd"
  d="M0 29.9993H24.8309V12.483H0V29.9993Z" fill="white" />
</mask>
</symbol>
<symbol  mask="url(#mask1_2_292)">
<g>
<path fill-rule="evenodd" clip-rule="evenodd"
  d="M20.4864 25.3873C20.857 25.3873 21.073 25.1842 21.1589 24.7788C21.1729 24.6961 21.1702 24.3344 21.1702 23.7258H22.7501V23.9632C22.7501 24.452 22.7101 24.7979 22.6966 24.9497C22.6458 25.286 22.5276 25.5902 22.3445 25.8586C21.9281 26.4665 21.3103 26.7661 20.5237 26.7661C19.7362 26.7661 19.1368 26.4806 18.7014 25.9085C18.3816 25.4896 18.1766 24.8668 18.1766 23.9772V21.0449C18.1766 20.1501 18.3632 19.4585 18.683 19.035C19.1184 18.4621 19.7178 18.1589 20.4864 18.1589C21.2416 18.1589 21.841 18.4621 22.263 19.035C22.5777 19.4585 22.7527 20.1129 22.7527 21.0078L22.753 22.7205H19.7565V24.225C19.7513 24.9981 19.9696 25.3873 20.4864 25.3873ZM17.1787 24.1447C17.1787 24.919 17.1129 25.4654 17.0124 25.8203C16.8115 26.4428 16.3734 26.7661 15.774 26.7661C15.2387 26.7661 14.6902 26.4416 14.1872 25.8146L14.1851 26.6581H12.6883V15.4317H14.1851L14.1834 19.0918C14.6697 18.489 15.2201 18.1458 15.774 18.1458C16.3734 18.1458 16.7764 18.4947 16.9773 19.1217C17.0778 19.4585 17.1787 20.0006 17.1787 20.7936V24.1447ZM11.441 26.6581H9.86104V25.7365C9.26208 26.4282 8.75433 26.7775 8.20085 26.7775C7.71522 26.7775 7.37794 26.5467 7.20914 26.1297C7.10653 25.8762 7.03377 25.4802 7.03377 24.8987V18.2802H8.61371V24.4798V25.0663C8.65055 25.3014 8.74967 25.3873 8.95058 25.3873C9.25293 25.3873 9.52659 25.1226 9.86104 24.6474V18.2802H11.441V26.6581ZM5.45382 26.6581H3.79071V17.0235H2.04445V15.4335L7.28323 15.4317V17.0235H5.45382V26.6581ZM24.5829 16.2618C24.5829 16.2618 24.3403 14.5456 23.5958 13.7897C22.6516 12.7979 21.5931 12.7929 21.1078 12.735C17.6331 12.483 12.421 12.483 12.421 12.483H12.4101C12.4101 12.483 7.19775 12.483 3.72311 12.735C3.23765 12.7929 2.17958 12.7979 1.2351 13.7897C0.490616 14.5456 0.248301 16.2618 0.248301 16.2618C0.248301 16.2618 0 18.277 0 20.2925V22.1819C0 24.1972 0.248301 26.2125 0.248301 26.2125C0.248301 26.2125 0.490616 27.9287 1.2351 28.6844C2.17958 29.6765 3.42059 29.645 3.97307 29.7489C5.95957 29.9402 12.4155 29.9993 12.4155 29.9993C12.4155 29.9993 17.6331 29.9914 21.1078 29.7395C21.5931 29.6815 22.6516 29.6765 23.5958 28.6844C24.3403 27.9287 24.5829 26.2125 24.5829 26.2125C24.5829 26.2125 24.8309 24.1972 24.8309 22.1819V20.2925C24.8309 18.277 24.5829 16.2618 24.5829 16.2618Z"
/>
</g>
</symbol>
<symbol id="earth-europe" viewBox="0 0 512 512">
<g>
<path d="M266.3 48.3L232.5 73.6c-5.4 4-8.5 10.4-8.5 17.1v9.1c0 6.8 5.5 12.3 12.3 12.3c2.4 0 4.8-.7 6.8-2.1l41.8-27.9c2-1.3 4.4-2.1 6.8-2.1h1c6.2 0 11.3 5.1 11.3 11.3c0 3-1.2 5.9-3.3 8l-19.9 19.9c-5.8 5.8-12.9 10.2-20.7 12.8l-26.5 8.8c-5.8 1.9-9.6 7.3-9.6 13.4c0 3.7-1.5 7.3-4.1 10l-17.9 17.9c-6.4 6.4-9.9 15-9.9 24v4.3c0 16.4 13.6 29.7 29.9 29.7c11 0 21.2-6.2 26.1-16l4-8.1c2.4-4.8 7.4-7.9 12.8-7.9c4.5 0 8.7 2.1 11.4 5.7l16.3 21.7c2.1 2.9 5.5 4.5 9.1 4.5c8.4 0 13.9-8.9 10.1-16.4l-1.1-2.3c-3.5-7 0-15.5 7.5-18l21.2-7.1c7.6-2.5 12.7-9.6 12.7-17.6c0-10.3 8.3-18.6 18.6-18.6H400c8.8 0 16 7.2 16 16s-7.2 16-16 16H379.3c-7.2 0-14.2 2.9-19.3 8l-4.7 4.7c-2.1 2.1-3.3 5-3.3 8c0 6.2 5.1 11.3 11.3 11.3h11.3c6 0 11.8 2.4 16 6.6l6.5 6.5c1.8 1.8 2.8 4.3 2.8 6.8s-1 5-2.8 6.8l-7.5 7.5C386 262 384 266.9 384 272s2 10 5.7 13.7L408 304c10.2 10.2 24.1 16 38.6 16H454c6.5-20.2 10-41.7 10-64c0-111.4-87.6-202.4-197.7-207.7zm172 307.9c-3.7-2.6-8.2-4.1-13-4.1c-6 0-11.8-2.4-16-6.6L396 332c-7.7-7.7-18-12-28.9-12c-9.7 0-19.2-3.5-26.6-9.8L314 287.4c-11.6-9.9-26.4-15.4-41.7-15.4H251.4c-12.6 0-25 3.7-35.5 10.7L188.5 301c-17.8 11.9-28.5 31.9-28.5 53.3v3.2c0 17 6.7 33.3 18.7 45.3l16 16c8.5 8.5 20 13.3 32 13.3H248c13.3 0 24 10.7 24 24c0 2.5 .4 5 1.1 7.3c71.3-5.8 132.5-47.6 165.2-107.2zM0 256a256 256 0 1 1 512 0A256 256 0 1 1 0 256zM187.3 100.7c-6.2-6.2-16.4-6.2-22.6 0l-32 32c-6.2 6.2-6.2 16.4 0 22.6s16.4 6.2 22.6 0l32-32c6.2-6.2 6.2-16.4 0-22.6z"/>
</g>
</symbol>
<symbol id="arrow-drop" viewBox="0 0 24 24">
<g >
<path d="M12 15.0006L7.75732 10.758L9.17154 9.34375L12 12.1722L14.8284 9.34375L16.2426 10.758L12 15.0006Z"></path>
</symbol>
<symbol id="earth"  viewBox="0 0 24 24">
<g>
<path d="M6.23509 6.45329C4.85101 7.89148 4 9.84636 4 12C4 16.4183 7.58172 20 12 20C13.0808 20 14.1116 19.7857 15.0521 19.3972C15.1671 18.6467 14.9148 17.9266 14.8116 17.6746C14.582 17.115 13.8241 16.1582 12.5589 14.8308C12.2212 14.4758 12.2429 14.2035 12.3636 13.3943L12.3775 13.3029C12.4595 12.7486 12.5971 12.4209 14.4622 12.1248C15.4097 11.9746 15.6589 12.3533 16.0043 12.8777C16.0425 12.9358 16.0807 12.9928 16.1198 13.0499C16.4479 13.5297 16.691 13.6394 17.0582 13.8064C17.2227 13.881 17.428 13.9751 17.7031 14.1314C18.3551 14.504 18.3551 14.9247 18.3551 15.8472V15.9518C18.3551 16.3434 18.3168 16.6872 18.2566 16.9859C19.3478 15.6185 20 13.8854 20 12C20 8.70089 18.003 5.8682 15.1519 4.64482C14.5987 5.01813 13.8398 5.54726 13.575 5.91C13.4396 6.09538 13.2482 7.04166 12.6257 7.11976C12.4626 7.14023 12.2438 7.12589 12.012 7.11097C11.3905 7.07058 10.5402 7.01606 10.268 7.75495C10.0952 8.2232 10.0648 9.49445 10.6239 10.1543C10.7134 10.2597 10.7307 10.4547 10.6699 10.6735C10.59 10.9608 10.4286 11.1356 10.3783 11.1717C10.2819 11.1163 10.0896 10.8931 9.95938 10.7412C9.64554 10.3765 9.25405 9.92233 8.74797 9.78176C8.56395 9.73083 8.36166 9.68867 8.16548 9.64736C7.6164 9.53227 6.99443 9.40134 6.84992 9.09302C6.74442 8.8672 6.74488 8.55621 6.74529 8.22764C6.74529 7.8112 6.74529 7.34029 6.54129 6.88256C6.46246 6.70541 6.35689 6.56446 6.23509 6.45329ZM12 22C6.47715 22 2 17.5228 2 12C2 6.47715 6.47715 2 12 2C17.5228 2 22 6.47715 22 12C22 17.5228 17.5228 22 12 22Z"></path>
</g>
</symbol>
</symbol>
<symbol  id="arrow-drop" viewBox="0 0 24 24">
<g>
<path d="M12 15.0006L7.75732 10.758L9.17154 9.34375L12 12.1722L14.8284 9.34375L16.2426 10.758L12 15.0006Z"></path>
<g id="earth"  viewBox="0 0 24 24">
<path d="M6.23509 6.45329C4.85101 7.89148 4 9.84636 4 12C4 16.4183 7.58172 20 12 20C13.0808 20 14.1116 19.7857 15.0521 19.3972C15.1671 18.6467 14.9148 17.9266 14.8116 17.6746C14.582 17.115 13.8241 16.1582 12.5589 14.8308C12.2212 14.4758 12.2429 14.2035 12.3636 13.3943L12.3775 13.3029C12.4595 12.7486 12.5971 12.4209 14.4622 12.1248C15.4097 11.9746 15.6589 12.3533 16.0043 12.8777C16.0425 12.9358 16.0807 12.9928 16.1198 13.0499C16.4479 13.5297 16.691 13.6394 17.0582 13.8064C17.2227 13.881 17.428 13.9751 17.7031 14.1314C18.3551 14.504 18.3551 14.9247 18.3551 15.8472V15.9518C18.3551 16.3434 18.3168 16.6872 18.2566 16.9859C19.3478 15.6185 20 13.8854 20 12C20 8.70089 18.003 5.8682 15.1519 4.64482C14.5987 5.01813 13.8398 5.54726 13.575 5.91C13.4396 6.09538 13.2482 7.04166 12.6257 7.11976C12.4626 7.14023 12.2438 7.12589 12.012 7.11097C11.3905 7.07058 10.5402 7.01606 10.268 7.75495C10.0952 8.2232 10.0648 9.49445 10.6239 10.1543C10.7134 10.2597 10.7307 10.4547 10.6699 10.6735C10.59 10.9608 10.4286 11.1356 10.3783 11.1717C10.2819 11.1163 10.0896 10.8931 9.95938 10.7412C9.64554 10.3765 9.25405 9.92233 8.74797 9.78176C8.56395 9.73083 8.36166 9.68867 8.16548 9.64736C7.6164 9.53227 6.99443 9.40134 6.84992 9.09302C6.74442 8.8672 6.74488 8.55621 6.74529 8.22764C6.74529 7.8112 6.74529 7.34029 6.54129 6.88256C6.46246 6.70541 6.35689 6.56446 6.23509 6.45329ZM12 22C6.47715 22 2 17.5228 2 12C2 6.47715 6.47715 2 12 2C17.5228 2 22 6.47715 22 12C22 17.5228 17.5228 22 12 22Z"></path>
</g>
</symbol>
<symbol  id="earth-europe"  viewBox="0 0 512 512" >
<g>
<path d="M266.3 48.3L232.5 73.6c-5.4 4-8.5 10.4-8.5 17.1l0 9.1c0 6.8 5.5 12.3 12.3 12.3c2.4 0 4.8-.7 6.8-2.1l41.8-27.9c2-1.3 4.4-2.1 6.8-2.1l1 0c6.2 0 11.3 5.1 11.3 11.3c0 3-1.2 5.9-3.3 8l-19.9 19.9c-5.8 5.8-12.9 10.2-20.7 12.8l-26.5 8.8c-5.8 1.9-9.6 7.3-9.6 13.4c0 3.7-1.5 7.3-4.1 10l-17.9 17.9c-6.4 6.4-9.9 15-9.9 24l0 4.3c0 16.4 13.6 29.7 29.9 29.7c11 0 21.2-6.2 26.1-16l4-8.1c2.4-4.8 7.4-7.9 12.8-7.9c4.5 0 8.7 2.1 11.4 5.7l16.3 21.7c2.1 2.9 5.5 4.5 9.1 4.5c8.4 0 13.9-8.9 10.1-16.4l-1.1-2.3c-3.5-7 0-15.5 7.5-18l21.2-7.1c7.6-2.5 12.7-9.6 12.7-17.6c0-10.3 8.3-18.6 18.6-18.6l29.4 0c8.8 0 16 7.2 16 16s-7.2 16-16 16l-20.7 0c-7.2 0-14.2 2.9-19.3 8l-4.7 4.7c-2.1 2.1-3.3 5-3.3 8c0 6.2 5.1 11.3 11.3 11.3l11.3 0c6 0 11.8 2.4 16 6.6l6.5 6.5c1.8 1.8 2.8 4.3 2.8 6.8s-1 5-2.8 6.8l-7.5 7.5C386 262 384 266.9 384 272s2 10 5.7 13.7L408 304c10.2 10.2 24.1 16 38.6 16l7.3 0c6.5-20.2 10-41.7 10-64c0-111.4-87.6-202.4-197.7-207.7zm172 307.9c-3.7-2.6-8.2-4.1-13-4.1c-6 0-11.8-2.4-16-6.6L396 332c-7.7-7.7-18-12-28.9-12c-9.7 0-19.2-3.5-26.6-9.8L314 287.4c-11.6-9.9-26.4-15.4-41.7-15.4l-20.9 0c-12.6 0-25 3.7-35.5 10.7L188.5 301c-17.8 11.9-28.5 31.9-28.5 53.3l0 3.2c0 17 6.7 33.3 18.7 45.3l16 16c8.5 8.5 20 13.3 32 13.3l21.3 0c13.3 0 24 10.7 24 24c0 2.5 .4 5 1.1 7.3c71.3-5.8 132.5-47.6 165.2-107.2zM0 256a256 256 0 1 1 512 0A256 256 0 1 1 0 256zM187.3 100.7c-6.2-6.2-16.4-6.2-22.6 0l-32 32c-6.2 6.2-6.2 16.4 0 22.6s16.4 6.2 22.6 0l32-32c6.2-6.2 6.2-16.4 0-22.6z"/>
</g>
</symbol>
<symbolid="telegram" viewBox="0 0 496 512">
<g>
<path d="M248 8C111 8 0 119 0 256S111 504 248 504 496 393 496 256 385 8 248 8zM363 176.7c-3.7 39.2-19.9 134.4-28.1 178.3-3.5 18.6-10.3 24.8-16.9 25.4-14.4 1.3-25.3-9.5-39.3-18.7-21.8-14.3-34.2-23.2-55.3-37.2-24.5-16.1-8.6-25 5.3-39.5 3.7-3.8 67.1-61.5 68.3-66.7 .2-.7 .3-3.1-1.2-4.4s-3.6-.8-5.1-.5q-3.3 .7-104.6 69.1-14.8 10.2-26.9 9.9c-8.9-.2-25.9-5-38.6-9.1-15.5-5-27.9-7.7-26.8-16.3q.8-6.7 18.5-13.7 108.4-47.2 144.6-62.3c68.9-28.6 83.2-33.6 92.5-33.8 2.1 0 6.6 .5 9.6 2.9a10.5 10.5 0 0 1 3.5 6.7A43.8 43.8 0 0 1 363 176.7z"/>
</g>
</symbolid=>
<symbolid="instagram" viewBox="0 0 448 512" >
<g >
<path d="M224.1 141c-63.6 0-114.9 51.3-114.9 114.9s51.3 114.9 114.9 114.9S339 319.5 339 255.9 287.7 141 224.1 141zm0 189.6c-41.1 0-74.7-33.5-74.7-74.7s33.5-74.7 74.7-74.7 74.7 33.5 74.7 74.7-33.6 74.7-74.7 74.7zm146.4-194.3c0 14.9-12 26.8-26.8 26.8-14.9 0-26.8-12-26.8-26.8s12-26.8 26.8-26.8 26.8 12 26.8 26.8zm76.1 27.2c-1.7-35.9-9.9-67.7-36.2-93.9-26.2-26.2-58-34.4-93.9-36.2-37-2.1-147.9-2.1-184.9 0-35.8 1.7-67.6 9.9-93.9 36.1s-34.4 58-36.2 93.9c-2.1 37-2.1 147.9 0 184.9 1.7 35.9 9.9 67.7 36.2 93.9s58 34.4 93.9 36.2c37 2.1 147.9 2.1 184.9 0 35.9-1.7 67.7-9.9 93.9-36.2 26.2-26.2 34.4-58 36.2-93.9 2.1-37 2.1-147.8 0-184.8zM398.8 388c-7.8 19.6-22.9 34.7-42.6 42.6-29.5 11.7-99.5 9-132.1 9s-102.7 2.6-132.1-9c-19.6-7.8-34.7-22.9-42.6-42.6-11.7-29.5-9-99.5-9-132.1s-2.6-102.7 9-132.1c7.8-19.6 22.9-34.7 42.6-42.6 29.5-11.7 99.5-9 132.1-9s102.7-2.6 132.1 9c19.6 7.8 34.7 22.9 42.6 42.6 11.7 29.5 9 99.5 9 132.1s2.7 102.7-9 132.1z"/>
</g>
</symbolid>
<symbol id="facebook" viewBox="0 0 512 512">
<g>
<path d="M512 256C512 114.6 397.4 0 256 0S0 114.6 0 256C0 376 82.7 476.8 194.2 504.5V334.2H141.4V256h52.8V222.3c0-87.1 39.4-127.5 125-127.5c16.2 0 44.2 3.2 55.7 6.4V172c-6-.6-16.5-1-29.6-1c-42 0-58.2 15.9-58.2 57.2V256h83.6l-14.4 78.2H287V510.1C413.8 494.8 512 386.9 512 256h0z"/>
</g>
</symbol>
<symbol id="twitter"  viewBox="0 0 512 512">
<g >
<path d="M459.4 151.7c.3 4.5 .3 9.1 .3 13.6 0 138.7-105.6 298.6-298.6 298.6-59.5 0-114.7-17.2-161.1-47.1 8.4 1 16.6 1.3 25.3 1.3 49.1 0 94.2-16.6 130.3-44.8-46.1-1-84.8-31.2-98.1-72.8 6.5 1 13 1.6 19.8 1.6 9.4 0 18.8-1.3 27.6-3.6-48.1-9.7-84.1-52-84.1-103v-1.3c14 7.8 30.2 12.7 47.4 13.3-28.3-18.8-46.8-51-46.8-87.4 0-19.5 5.2-37.4 14.3-53 51.7 63.7 129.3 105.3 216.4 109.8-1.6-7.8-2.6-15.9-2.6-24 0-57.8 46.8-104.9 104.9-104.9 30.2 0 57.5 12.7 76.7 33.1 23.7-4.5 46.5-13.3 66.6-25.3-7.8 24.4-24.4 44.8-46.1 57.8 21.1-2.3 41.6-8.1 60.4-16.2-14.3 20.8-32.2 39.3-52.6 54.3z"/>
</g>
</symbol>
<symbol id="svg-beh"  viewBox="0 0 24 15">
<g>
<path d="M22 2H15V0H22V2ZM23.726 12C23.284 13.297 21.697 15 18.625 15C15.551 15 13.061 13.271 13.061 9.325C13.061 5.415 15.386 3.405 18.527 3.405C21.609 3.405 23.491 5.187 23.902 7.831C23.98 8.337 24.011 9.019 23.997 9.971H15.97C16.1 13.182 19.453 13.283 20.558 12H23.726ZM16.04 8H21.005C20.9 6.453 19.869 5.781 18.528 5.781C17.062 5.781 16.251 6.549 16.04 8ZM6.466 14.988H0V0.0209999H6.953C12.429 0.102 12.533 5.465 9.673 6.927C13.134 8.187 13.25 14.988 6.466 14.988ZM3 6H6.584C9.092 6 9.49 3 6.272 3H3V6ZM6.391 9H3V12.016H6.341C9.396 12.016 9.209 9 6.391 9Z" />
</g>
</symbol>
<symbol id="arrow-up" viewBox="0 0 384 512">
<g>
<path d="M214.6 41.4c-12.5-12.5-32.8-12.5-45.3 0l-160 160c-12.5 12.5-12.5 32.8 0 45.3s32.8 12.5 45.3 0L160 141.2 160 448c0 17.7 14.3 32 32 32s32-14.3 32-32l0-306.7L329.4 246.6c12.5 12.5 32.8 12.5 45.3 0s12.5-32.8 0-45.3l-160-160z"/>
</g>
</symbol>
<symbol >

</symbol>
<symbol >

</symbol>
</svg>

